<?xml version="1.0" encoding="UTF-8" standalone="no"?>
<!-- Created with Inkscape (http://www.inkscape.org/) -->

<svg
   xmlns:dc="http://purl.org/dc/elements/1.1/"
   xmlns:cc="http://creativecommons.org/ns#"
   xmlns:rdf="http://www.w3.org/1999/02/22-rdf-syntax-ns#"
   xmlns:svg="http://www.w3.org/2000/svg"
   xmlns="http://www.w3.org/2000/svg"
   xmlns:sodipodi="http://sodipodi.sourceforge.net/DTD/sodipodi-0.dtd"
   xmlns:inkscape="http://www.inkscape.org/namespaces/inkscape"
   width="35.510815mm"
   height="38.867416mm"
   viewBox="0 0 35.510815 38.867416"
   version="1.1"
   id="svg8"
   inkscape:version="0.92.2 5c3e80d, 2017-08-06"
   sodipodi:docname="VBM_logo.svg">
  <defs
     id="defs2" />
  <sodipodi:namedview
     id="base"
     pagecolor="#ffffff"
     bordercolor="#666666"
     borderopacity="1.0"
     inkscape:pageopacity="0.0"
     inkscape:pageshadow="2"
     inkscape:zoom="3.959798"
     inkscape:cx="78.60245"
     inkscape:cy="74.852373"
     inkscape:document-units="mm"
     inkscape:current-layer="layer1"
     showgrid="false"
     inkscape:window-width="1440"
     inkscape:window-height="790"
     inkscape:window-x="0"
     inkscape:window-y="1"
     inkscape:window-maximized="1"
     fit-margin-top="0"
     fit-margin-left="0"
     fit-margin-right="0"
     fit-margin-bottom="0" />
  <metadata
     id="metadata5">
    <rdf:RDF>
      <cc:Work
         rdf:about="">
        <dc:format>image/svg+xml</dc:format>
        <dc:type
           rdf:resource="http://purl.org/dc/dcmitype/StillImage" />
        <dc:title></dc:title>
      </cc:Work>
    </rdf:RDF>
  </metadata>
  <g
     inkscape:label="Layer 1"
     inkscape:groupmode="layer"
     id="layer1"
     transform="translate(-51.854081,-61.332593)">
    <path
       style="fill:#000000;stroke-width:0.26458335"
       d="m 66.435603,99.869341 c 0.0599,-0.1819 0.3758,-0.36986 0.70199,-0.41769 0.4912,-0.072 0.58058,-0.23191 0.52036,-0.93087 -0.0619,-0.7187 0.13349,-1.03677 1.31734,-2.14411 1.70536,-1.59517 3.21632,-3.614 3.21632,-4.29741 0,-0.66376 -0.77271,-1.75184 -0.78533,-1.10585 -0.005,0.23684 -0.18586,0.57788 -0.40273,0.75788 -0.24953,0.20708 -0.33615,0.55901 -0.2359,0.95843 0.0956,0.38084 0.0421,0.63119 -0.13485,0.63119 -0.1613,0 -0.29327,0.18974 -0.29327,0.42164 0,0.23191 -0.23812,0.48392 -0.52917,0.56003 -0.29104,0.0761 -0.52916,0.35028 -0.52916,0.60928 0,0.25899 -0.38696,0.81831 -0.8599,1.24292 -0.47294,0.42462 -1.09802,1.05245 -1.38906,1.39519 -0.4772,0.56196 -0.48235,0.60607 -0.0524,0.44904 0.30208,-0.11033 0.41346,-0.0717 0.30397,0.10547 -0.095,0.15377 -0.32955,0.21943 -0.52114,0.14591 -0.19159,-0.0735 -0.68556,0.15635 -1.09772,0.51081 -0.41215,0.35446 -0.88846,0.64462 -1.05846,0.6448 -0.17,1.8e-4 -0.52718,0.0617 -0.79375,0.13661 -0.26656,0.075 -0.16288,-0.018 0.23041,-0.20656 0.39328,-0.18857 1.37555,-0.93118 2.18281,-1.65026 l 1.46775,-1.30742 v -6.56412 c 0,-5.59069 -0.0589,-6.5867 -0.39688,-6.71641 -0.93662,-0.35942 -0.2556,-0.62485 1.60316,-0.62485 h 2.00003 l 0.84663,1.86173 c 0.79959,1.75828 0.87556,1.84056 1.36739,1.48093 0.50575,-0.36981 0.46466,-0.49938 -1.42567,-4.49641 -1.92109,-4.06206 -1.94254,-4.13108 -1.64763,-5.30227 0.36816,-1.46209 0.38033,-3.3319 0.0251,-3.86273 -0.22986,-0.34352 -0.31824,-0.32782 -0.65741,0.11672 -0.21552,0.28247 -0.39367,0.75872 -0.3959,1.05833 -0.002,0.29961 -0.10604,0.7057 -0.2307,0.90242 -0.50275,0.79337 -1.67179,-2.03925 -2.4186,-5.860325 -0.22683,-1.160597 -0.51909,-1.7532 -1.20091,-2.435021 -0.58483,-0.584823 -0.85307,-1.067991 -0.76421,-1.376519 0.0889,-0.308629 0.0318,-0.277151 -0.16281,0.08973 -0.37185,0.701109 -1.32851,1.154202 -2.44106,1.156139 -1.83658,0.0032 -2.92258,0.533736 -4.61324,2.253677 -1.56915,1.596322 -2.10612,1.821853 -1.77447,0.745287 0.0825,-0.267794 -0.0377,-0.163802 -0.26714,0.231093 -0.24515,0.421958 -0.56832,0.659973 -0.78383,0.577275 -0.52014,-0.199595 -0.6069,0.02973 -1.04795,2.769684 -0.43598,2.70851 -0.44737,2.63532 1.15805,7.44443 1.17802,3.52883 1.56936,4.24176 2.80221,5.10493 0.79018,0.55324 1.50952,0.79729 2.65666,0.9013 1.4014,0.12708 1.75784,0.0494 3.26592,-0.71189 0.93105,-0.46999 2.02604,-1.10089 2.43331,-1.402 0.40726,-0.3011 0.80001,-0.48793 0.87277,-0.41517 0.19629,0.19629 -1.2032,1.16862 -2.98591,2.07453 -1.08527,0.55149 -1.9549,0.7983 -2.81283,0.7983 -1.11471,0 -1.22495,0.0533 -1.07661,0.52068 0.15064,0.47462 0.0963,0.49664 -0.61429,0.24892 -0.42876,-0.14946 -1.26522,-0.68746 -1.85882,-1.19556 l -1.07925,-0.9238 -0.17494,0.697 c -0.24598,0.98008 0.0641,3.24626 0.54649,3.99351 0.22296,0.3454 0.59603,0.95542 0.82904,1.3556 0.3516,0.60386 0.28235,0.57011 -0.4072,-0.19844 -0.45697,-0.50932 -0.90813,-1.22369 -1.00259,-1.5875 l -0.17174,-0.66145 -0.18844,0.66145 c -0.27552,0.9671 -0.27715,-1.67945 -0.002,-3.1017 0.24225,-1.25179 9e-5,-1.28993 -0.5015,-0.079 -0.18213,0.43968 -0.43818,0.79942 -0.569,0.79942 -0.28288,0 0.6991,-2.00377 1.10488,-2.25456 0.17915,-0.11072 0.19054,-0.28528 0.0314,-0.48097 -0.21288,-0.26176 -0.47065,-1.05989 -1.5354,-4.7541 -0.0758,-0.263 -0.42743,-0.58829 -0.78139,-0.72286 -0.72627,-0.27613 -1.03278,-0.92334 -1.30872,-2.76342 -0.13801,-0.92035 -0.10777,-1.21915 0.10979,-1.08469 0.16515,0.10207 0.30027,0.51798 0.30027,0.92424 0,0.96453 0.50789,2.40511 0.84794,2.40511 0.15361,0 0.18261,-0.19665 0.0683,-0.46302 -0.10929,-0.25466 -0.32053,-1.0881 -0.46942,-1.85208 -0.14889,-0.76398 -0.41073,-1.38906 -0.58186,-1.38906 -0.22651,0 -0.1838,-0.62975 0.15702,-2.31511 0.2575,-1.273306 0.5439,-2.990495 0.63645,-3.815975 0.27888,-2.48732 2.354,-5.007728 5.17761,-6.288653 1.89093,-0.857816 5.17454,-0.615991 6.30745,0.464518 0.25711,0.245212 0.9303,0.683965 1.49598,0.975007 1.0423,0.536253 2.15651,1.900044 2.36496,2.8947 0.0628,0.299686 0.3026,1.437852 0.53288,2.529258 l 0.41869,1.984375 h 1.57352 c 1.55246,0 2.16382,0.39844 1.02416,0.66748 -1.15389,0.2724 -1.21181,0.86965 -0.29687,3.06163 0.79939,1.91513 0.8222,2.05695 0.38744,2.40866 -0.42087,0.34048 -0.41176,0.34953 0.10239,0.1018 0.52353,-0.25225 0.63632,-0.11038 1.55963,1.96174 0.5474,1.22851 1.10677,2.16475 1.24303,2.08054 0.13626,-0.0842 0.18313,-0.41059 0.10414,-0.72528 -0.13938,-0.55535 0.48451,-2.79861 0.85418,-3.07131 0.10085,-0.0744 0.32363,-0.4548 0.49506,-0.84536 0.24063,-0.54821 0.23941,-0.73949 -0.005,-0.83901 -0.17911,-0.0728 -0.1224,-0.13799 0.13032,-0.14979 0.634,-0.0296 0.81019,0.3879 0.33139,0.78527 -0.2233,0.18533 -0.34479,0.49647 -0.26997,0.69144 0.0748,0.19497 0.0305,0.35448 -0.0984,0.35448 -0.35049,0 -1.16045,2.29808 -0.97776,2.77417 0.0871,0.22707 -0.15874,1.09477 -0.54641,1.9282 -0.38766,0.83344 -0.71925,1.69394 -0.73686,1.91222 -0.0669,0.82853 -0.48468,2.00189 -0.87125,2.44678 -0.3606,0.415 -0.35283,0.57101 0.0757,1.52136 0.26264,0.58242 0.56995,1.05894 0.68291,1.05894 0.32234,0 2.14877,-4.99323 3.29051,-8.99583 0.39434,-1.38245 0.83876,-2.63261 0.98761,-2.77813 0.18316,-0.17908 0.22329,-0.0936 0.12418,0.26459 -0.56201,2.03087 -1.30273,4.46486 -1.75861,5.77869 -0.52851,1.52317 -0.52902,1.55925 -0.0354,2.51354 l 0.50084,0.96818 0.29318,-0.76128 c 0.16124,-0.41871 1.31297,-3.63308 2.55939,-7.14305 2.36252,-6.65296 2.41928,-7.01213 1.15543,-7.31049 -0.33924,-0.0801 -0.66685,-0.295773 -0.72803,-0.479306 -0.0853,-0.255843 0.45061,-0.315869 2.29695,-0.257285 2.35449,0.07471 3.28776,0.473037 1.7288,0.737871 -0.60016,0.10195 -0.9168,0.40534 -1.38073,1.32292 l -0.60198,1.19062 1.26344,0.39688 c 1.86143,0.58472 2.30812,0.91291 2.8361,2.08377 0.67555,1.4981 0.38375,2.76894 -0.93964,4.09233 -1.38417,1.38418 -1.59147,1.1014 -0.23665,-0.32282 0.86344,-0.90766 1.05883,-1.30313 1.05883,-2.14303 0,-1.50084 -0.39286,-2.30313 -1.37769,-2.81351 -1.14082,-0.59122 -2.55572,-0.90339 -2.74037,-0.60461 -0.0806,0.13037 0.0779,0.23703 0.35216,0.23703 0.27427,0 0.78731,0.31652 1.1401,0.70336 l 0.64143,0.70336 -0.8408,-0.6067 c -0.46244,-0.33369 -1.00681,-0.543 -1.2097,-0.46514 -0.2029,0.0779 -0.9274,1.67147 -1.60999,3.54136 -0.68259,1.86989 -1.93186,5.29745 -2.77616,7.6168 -0.8443,2.31934 -1.6585,4.25813 -1.80934,4.3084 -0.15084,0.0503 -0.48041,-0.44838 -0.73237,-1.10813 -0.52628,-1.37804 -0.83296,-1.51149 -1.06331,-0.4627 -0.22327,1.01654 2.15841,6.216 2.53724,5.53906 0.32593,-0.5824 3.64522,-9.32139 3.98513,-10.492 0.31223,-1.0753 0.96528,-2.13392 1.31639,-2.13392 0.13737,0 0.17618,0.11907 0.0862,0.26459 -0.10311,0.16684 0.52642,0.26458 1.70418,0.26458 1.91171,0 2.49482,0.3376 1.07395,0.62177 -1.00458,0.20092 -1.00216,0.46395 0.01,1.0617 2.1374,1.2626 2.87685,4.76871 1.49872,7.10619 -0.36714,0.62272 -1.03534,1.48191 -1.48488,1.90932 -0.80533,0.76567 -0.81736,0.81539 -0.81736,3.37911 0,2.51872 0.0212,2.61165 0.66146,2.90338 0.36381,0.16577 0.66146,0.40134 0.66146,0.5235 0,0.318409 -5.49084,0.277409 -5.68854,-0.0425 -0.0899,-0.14552 0.0136,-0.26458 0.23007,-0.26458 0.84065,0 1.22514,-0.78714 1.22514,-2.50812 v -1.67656 l -1.25677,0.36517 c -0.69122,0.20085 -1.68012,0.42909 -2.19753,0.50719 -0.85756,0.12944 -0.98369,0.26466 -1.42603,1.52872 -0.26689,0.7627 -0.58673,1.49888 -0.71077,1.63596 -0.13144,0.14528 -0.52037,-0.43414 -0.93239,-1.38906 -0.49905,-1.15658 -0.84975,-1.6383 -1.19274,-1.6383 -0.26722,0 -0.48585,-0.11907 -0.48585,-0.26459 0,-0.14552 0.16968,-0.26458 0.37707,-0.26458 0.29216,0 0.22282,-0.35748 -0.30791,-1.5875 -0.37673,-0.87312 -0.76542,-1.5875 -0.86376,-1.5875 -0.0983,0 -0.30386,0.26789 -0.45672,0.59531 -0.15287,0.32743 -0.94588,1.32842 -1.76227,2.22443 -1.23323,1.35352 -1.48433,1.79225 -1.48433,2.59345 0,0.83361 0.1076,1.00185 0.79375,1.24104 1.34489,0.46883 0.88614,0.754099 -1.21267,0.754099 -1.48684,0 -1.97822,-0.0856 -1.89751,-0.330729 z m 14.93751,-4.69166 c 3.8099,-1.33634 6.02324,-4.43212 5.52833,-7.73243 -0.14282,-0.95235 -0.43627,-1.49129 -1.29234,-2.37341 -0.90308,-0.93056 -1.12456,-1.05303 -1.19962,-0.66333 -0.0506,0.26287 0.10587,0.895 0.34775,1.40473 0.69801,1.47095 0.0241,4.30247 -1.34495,5.65076 -0.4233,0.41688 -0.92441,0.91592 -1.11358,1.109 -0.76655,0.78232 -1.38825,1.27707 -1.60474,1.27707 -0.12589,0 -0.53296,0.23917 -0.90458,0.53149 -0.37162,0.29232 -1.04252,0.60486 -1.49089,0.69453 -0.47892,0.0958 -0.81521,0.32796 -0.81521,0.56281 0,0.51244 1.68279,0.31291 3.88983,-0.46122 z m -11.52131,-1.57012 c 0.47356,-0.37107 0.65885,-0.7192 0.5679,-1.06698 -0.0769,-0.29403 0.11682,-0.86984 0.45005,-1.33782 l 0.58504,-0.82161 -1.26585,-2.89574 c -0.69621,-1.59267 -1.30433,-2.89575 -1.35137,-2.89575 -0.0471,0 -0.0772,2.35148 -0.0669,5.22552 0.0102,2.87403 0.0995,5.02699 0.19843,4.78434 0.0989,-0.24265 0.49615,-0.68903 0.88274,-0.99196 z m 9.69828,0.59476 c 0.19374,-0.19373 0.45817,-0.35225 0.58762,-0.35225 0.12946,0 0.47815,-0.26057 0.77486,-0.57905 0.49133,-0.52739 0.53832,-0.91102 0.52658,-4.29948 l -0.0129,-3.72042 -0.63239,1.5875 c -1.12694,2.82897 -3.04599,7.84716 -3.04599,7.96508 0,0.22877 1.45888,-0.25804 1.80222,-0.60138 z m 5.13254,-6.78657 c 0.0645,-0.33743 0.0272,-0.84344 -0.0828,-1.12448 -0.14158,-0.3615 -0.20557,-0.18203 -0.21873,0.61349 -0.0204,1.23402 0.1184,1.46921 0.30158,0.51099 z m -22.61132,12.07993 c 0.1819,-0.0734 0.47956,-0.0734 0.66146,0 0.1819,0.0734 0.0331,0.13345 -0.33073,0.13345 -0.3638,0 -0.51263,-0.06 -0.33073,-0.13345 z m -4.16719,-0.75081 c -0.3638,-0.20797 -0.54239,-0.37813 -0.39687,-0.37813 0.14552,0 0.56224,0.17016 0.92604,0.37813 0.3638,0.20796 0.5424,0.37812 0.39688,0.37812 -0.14553,0 -0.56224,-0.17016 -0.92605,-0.37812 z m -1.88583,-1.10166 c -0.32927,-0.39915 -0.30762,-0.41061 0.23219,-0.12298 0.61567,0.32806 0.76727,0.56318 0.36312,0.56318 -0.1277,0 -0.39559,-0.19809 -0.59531,-0.4402 z m 13.79208,-0.60959 c 0,-0.25051 1.51193,-1.06688 1.97588,-1.06688 0.44627,0 0.0175,0.46597 -0.71911,0.78143 -0.47294,0.20256 -0.94919,0.41718 -1.05833,0.47693 -0.10914,0.0598 -0.19844,-0.0264 -0.19844,-0.19148 z m -15.11112,-0.73615 c -0.84252,-0.93157 -1.38798,-1.65365 -1.24918,-1.65365 0.0598,0 0.55652,0.53579 1.1039,1.19063 1.09271,1.30723 1.19041,1.61863 0.14528,0.46302 z m 17.49237,-0.0662 c 0,-0.14552 0.1786,-0.26458 0.39688,-0.26458 0.21828,0 0.39687,0.11906 0.39687,0.26458 0,0.14552 -0.17859,0.26459 -0.39687,0.26459 -0.21828,0 -0.39688,-0.11907 -0.39688,-0.26459 z m -10.15527,-1.98437 c -0.25948,-1.60533 -0.83029,-3.04271 -1.20831,-3.04271 -0.59392,0 -1.30651,1.07509 -1.48017,2.23314 -0.10004,0.66712 -0.28721,1.27805 -0.41594,1.3576 -0.33183,0.20509 -0.26986,-0.64749 0.12795,-1.76029 0.20214,-0.56544 0.29615,-1.68885 0.23308,-2.78526 -0.0921,-1.60188 -0.0353,-1.90133 0.44336,-2.33448 0.53112,-0.48066 0.80126,-0.24859 0.30243,0.25981 -0.25879,0.26375 -0.39317,1.16446 -0.32369,2.16958 0.0619,0.89549 1.43348,0.83724 1.85076,-0.0786 0.44217,-0.97045 0.38027,-1.55907 -0.22118,-2.10337 -0.40302,-0.36473 -0.45805,-0.5626 -0.23219,-0.83476 0.16283,-0.19619 0.48388,-0.35671 0.71345,-0.35671 0.31522,0 0.34271,0.0747 0.11227,0.30511 -0.20625,0.20626 -0.22249,0.4595 -0.0501,0.78156 0.14024,0.26204 0.32919,1.22606 0.4199,2.14228 0.0907,0.91621 0.34712,1.87541 0.56983,2.13155 0.37877,0.43566 0.44336,0.39802 1.00066,-0.58312 0.32766,-0.57686 0.97143,-1.51632 1.4306,-2.08769 0.45916,-0.57137 1.05809,-1.73772 1.33095,-2.59188 0.60996,-1.90946 0.67704,-0.98175 0.10377,1.43531 -0.53974,2.2757 -0.62416,2.5372 -0.77154,2.38983 -0.0668,-0.0669 -0.009,-0.53038 0.12839,-1.03006 l 0.24994,-0.90852 -0.91261,1.05834 c -0.50194,0.58208 -1.15942,1.57834 -1.46106,2.21392 l -0.54845,1.15559 -0.64548,-0.6064 c -0.35502,-0.33352 -0.64548,-0.87627 -0.64548,-1.20612 0,-0.32985 -0.11907,-0.67331 -0.26459,-0.76324 -0.33841,-0.20915 -0.33955,-0.22383 0.14614,1.87044 0.2259,0.97404 0.37032,2.02323 0.32095,2.33152 -0.0494,0.3083 -0.186,-0.0348 -0.30361,-0.76238 z m -4.23621,-1.60914 c -0.25561,-0.66611 -0.18226,-1.08118 0.11306,-0.63982 0.23217,0.34697 0.31019,0.33865 0.62043,-0.0662 0.56516,-0.7374 0.74511,-0.53671 0.29654,0.33073 -0.45666,0.88308 -0.78873,1.00405 -1.03003,0.37524 z m 7.7769,-0.9044 c 0,-0.14552 0.11906,-0.26459 0.26458,-0.26459 0.14552,0 0.26459,0.11907 0.26459,0.26459 0,0.14552 -0.11907,0.26458 -0.26459,0.26458 -0.14552,0 -0.26458,-0.11906 -0.26458,-0.26458 z m -12.7,-3.40836 c 0,-0.14552 0.11906,-0.33816 0.26458,-0.4281 0.14552,-0.0899 0.26459,-0.0445 0.26459,0.10106 0,0.14552 -0.11907,0.33817 -0.26459,0.42811 -0.14552,0.0899 -0.26458,0.0444 -0.26458,-0.10107 z m 0.79375,-0.79375 c 0,-0.14552 0.11906,-0.33816 0.26458,-0.4281 0.14552,-0.0899 0.26459,-0.0445 0.26459,0.10106 0,0.14552 -0.11907,0.33817 -0.26459,0.42811 -0.14552,0.0899 -0.26458,0.0444 -0.26458,-0.10107 z m 8.73453,-0.47863 c 0.004,-0.2729 1.85806,-1.48362 2.0215,-1.32018 0.0673,0.0673 -0.21192,0.35395 -0.62048,0.637 -1.13042,0.78317 -1.4046,0.91687 -1.40102,0.68318 z m 2.37797,-1.63883 c 0,-0.12879 0.32742,-0.44361 0.7276,-0.69962 l 0.72761,-0.46546 -0.64143,0.69962 c -0.69354,0.75644 -0.81378,0.82521 -0.81378,0.46546 z m -6.03767,-2.47783 c 0.12139,-0.85472 1.63252,-0.84459 1.75659,0.0118 0.0739,0.51024 -0.0364,0.58353 -0.87829,0.58353 -0.84717,0 -0.95269,-0.0715 -0.8783,-0.59531 z m 21.50899,0.0551 c -0.0937,-0.15157 0.59689,-1.01478 1.53461,-1.91822 1.84224,-1.77493 2.30641,-2.45957 2.3127,-3.41118 0.003,-0.42954 0.07,-0.50872 0.22463,-0.26487 0.45115,0.71145 -0.0893,1.77934 -1.72346,3.40548 -0.92338,0.91885 -1.81282,1.67064 -1.97653,1.67064 -0.20637,0 -0.19664,0.1217 0.0317,0.39688 0.2077,0.25026 0.22544,0.39687 0.048,0.39687 -0.15475,0 -0.35801,-0.12402 -0.45169,-0.2756 z m -13.13529,-0.91615 c -0.26327,-0.26326 0.93729,-3.83533 1.28904,-3.83533 0.18902,0 0.34368,0.11906 0.34368,0.26458 0,0.14552 -0.11367,0.26458 -0.25259,0.26458 -0.13893,0 -0.33609,0.44649 -0.43814,0.99219 -0.22885,1.22377 -0.75058,2.50539 -0.94199,2.31398 z m -9.74436,-0.42703 c 0,-0.11918 -0.1786,-0.14816 -0.39688,-0.0644 -0.29082,0.1116 -0.39687,-0.0338 -0.39687,-0.54402 0,-0.52064 0.18356,-0.76144 0.7276,-0.95446 0.40018,-0.14198 0.93435,-0.37716 1.18704,-0.52262 0.69711,-0.40129 0.77165,-0.33632 0.68181,0.59427 -0.0688,0.7131 -0.21753,0.88728 -0.87666,1.02703 -0.47698,0.10113 0.13017,0.18078 1.52135,0.19959 1.36721,0.0185 2.31511,0.14112 2.31511,0.2995 0,0.16454 -0.92036,0.2515 -2.38125,0.225 -1.30969,-0.0237 -2.38125,-0.1407 -2.38125,-0.25989 z m 26.06146,-0.2333 c 0.0899,-0.14552 0.27555,-0.26459 0.41249,-0.26459 0.13693,0 0.24896,0.11907 0.24896,0.26459 0,0.14552 -0.18562,0.26458 -0.41249,0.26458 -0.22687,0 -0.3389,-0.11906 -0.24896,-0.26458 z m -22.225,-0.24001 c -1.2798,-0.15175 -1.32576,-0.18667 -1.40989,-1.07123 -0.0908,-0.95466 0.42779,-1.60818 1.26202,-1.59038 0.30749,0.007 0.25648,0.13881 -0.20049,0.51971 l -0.61293,0.5109 0.74522,0.17323 c 1.04399,0.24268 1.93586,0.84483 1.93586,1.307 0,0.21493 -0.0893,0.37207 -0.19844,0.34921 -0.10914,-0.0229 -0.79375,-0.11216 -1.52135,-0.19844 z m -3.83241,-2.11179 c 0.002,-0.089 0.11698,-0.34034 0.25501,-0.55862 0.22125,-0.34989 0.30166,-0.3462 0.67911,0.0311 0.39446,0.39435 0.3744,0.43831 -0.25501,0.55863 -0.37574,0.0718 -0.68134,0.0578 -0.67911,-0.0312 z m 4.22928,-0.55862 c -0.31086,-0.43656 -0.44109,-0.79375 -0.28939,-0.79375 0.15169,0 0.46051,0.35719 0.68627,0.79375 0.22575,0.43656 0.35598,0.79375 0.28939,0.79375 -0.0666,0 -0.37541,-0.35719 -0.68627,-0.79375 z m 22.35729,-1.85208 c -0.0899,-0.14552 -0.0374,-0.26459 0.11668,-0.26459 0.15411,0 0.2802,0.11907 0.2802,0.26459 0,0.14552 -0.0525,0.26458 -0.11668,0.26458 -0.0642,0 -0.19026,-0.11906 -0.2802,-0.26458 z m -5.41336,-0.28461 c -0.0159,-0.62377 1.12439,-1.5708 1.85854,-1.54361 0.5546,0.0205 0.52529,0.0583 -0.2103,0.2708 -0.49744,0.14372 -1.01834,0.54847 -1.24618,0.96832 -0.23639,0.43562 -0.39567,0.55624 -0.40206,0.30449 z m -4.58232,-0.52005 c 0.0854,-0.32672 0.66831,-0.61729 1.88468,-0.93956 1.04402,-0.27661 2.34409,-0.87831 3.19314,-1.47784 1.97942,-1.39774 2.29505,-1.27753 0.36884,0.14047 -0.97322,0.71644 -2.10744,1.28198 -3.00097,1.49633 -1.17438,0.28173 -1.34076,0.38611 -0.91197,0.57212 0.39669,0.17209 0.34181,0.19172 -0.22531,0.0806 -0.42944,-0.0842 -0.68505,-0.0422 -0.59829,0.0981 0.0833,0.13481 -0.0702,0.30308 -0.34116,0.37394 -0.37141,0.0971 -0.46221,0.0124 -0.36896,-0.34416 z m -15.27203,-1.54208 c 0,-0.43476 -0.18001,-0.97048 -0.40003,-1.1905 -0.4774,-0.4774 -2.47107,-0.8192 -3.34415,-0.57334 l -0.62144,0.175 0.62608,-0.50396 c 0.4906,-0.39489 0.92004,-0.47793 1.98438,-0.38369 0.74706,0.0661 1.51625,0.26908 1.70931,0.45097 0.46958,0.4424 0.7225,2.39779 0.34067,2.63378 -0.19157,0.1184 -0.29482,-0.0946 -0.29482,-0.60826 z m 2.91042,0.23007 c -0.20985,-0.1297 -0.29372,-0.32364 -0.18637,-0.43099 0.10736,-0.10736 0.3341,-0.0563 0.50387,0.11349 0.16977,0.16978 0.25364,0.36372 0.18637,0.431 -0.0673,0.0673 -0.29402,0.0162 -0.50387,-0.1135 z m -6.76112,-0.28764 c -0.27386,-0.44311 0.19991,-0.75671 1.39593,-0.924 1.1415,-0.15967 2.32461,0.25093 2.04175,0.7086 -0.10529,0.17037 -0.2958,0.15415 -0.53657,-0.0457 -0.29529,-0.24506 -0.37332,-0.22009 -0.37332,0.11945 0,0.589 -1.2104,0.56338 -1.59433,-0.0337 -0.28353,-0.44097 -0.29086,-0.44097 -0.15375,0 0.15972,0.51369 -0.48149,0.65792 -0.77971,0.17538 z m 24.75279,0.0534 c 0,-0.11711 0.26584,-0.43973 0.59075,-0.71695 0.48092,-0.41032 0.52409,-0.41794 0.23219,-0.041 -0.31609,0.40817 -0.29204,0.46302 0.20299,0.46302 0.86446,0 0.66402,0.38964 -0.23271,0.45237 -0.43627,0.0305 -0.79322,-0.0403 -0.79322,-0.15743 z m -17.19792,-0.37296 c 0,-0.26593 -0.20746,-0.3381 -0.70078,-0.2438 -0.45295,0.0866 -0.6396,0.035 -0.52778,-0.14596 0.29066,-0.4703 2.24497,-0.67211 3.09581,-0.31968 0.8273,0.34267 1.0429,0.78746 0.38171,0.78746 -0.21828,0 -0.39688,-0.11906 -0.39688,-0.26458 0,-0.14552 -0.11906,-0.26458 -0.26458,-0.26458 -0.14552,0 -0.23482,0.14883 -0.19844,0.33073 0.0372,0.18601 -0.25223,0.36736 -0.66146,0.41445 -0.49309,0.0567 -0.7276,-0.038 -0.7276,-0.29404 z m -1.5875,-1.61232 c 0,-0.25231 0.24299,-0.4448 0.59531,-0.47158 1.06435,-0.0809 1.38137,-0.14001 1.86896,-0.34838 0.49355,-0.21093 1.76906,0.21693 1.76906,0.59341 0,0.11611 -0.50601,0.21115 -1.12448,0.21119 -0.61846,4e-5 -1.57096,0.0994 -2.11666,0.22088 -0.82737,0.18412 -0.99219,0.14998 -0.99219,-0.20552 z"
       id="path889"
       inkscape:connector-curvature="0" />
  </g>
</svg>
